# xmcd
#
# Track frame offsets:
# 150
# 18464
# 36744
# 58119
# 81399
# 100223
# 121734
# 139027
# 160674
#
# Disc length: 2419 seconds
#
# Revision: 0
# Processed by: cddbd v1.5.2PL0 Copyright (c) Steve Scherf et al.
# Submitted via: Audion 3.0.2 (http://www.panic.com/audion/)
#
DISCID=76097109
DTITLE=Neil Larsen  -  Through Any Window
DYEAR=1900
DGENRE=
TTITLE0=Carnival
TTITLE1=Alborada
TTITLE2=MIss Baby Laru
TTITLE3=Blind Spot
TTITLE4=Tonar
TTITLE5=Tropic Lightning
TTITLE6=Last Call
TTITLE7=Through Any Window
TTITLE8=Hip Hug-Her
EXTD=
EXTT0=
EXTT1=
EXTT2=
EXTT3=
EXTT4=
EXTT5=
EXTT6=
EXTT7=
EXTT8=
PLAYORDER=
